<svg width="92" height="46" viewBox="0 0 92 46" fill="none"
    xmlns="http://www.w3.org/2000/svg">
    <g clip-path="url(#clip0_2209_8)">
        <g clip-path="url(#clip1_2209_8)">
            <path d="M15.7078 1.5625V30H9.86797V1.5625H15.7078ZM24.4578 1.5625V6.15234H1.25469V1.5625H24.4578ZM33.6734 1.5625H38.6344L45.9391 22.4414L53.2438 1.5625H58.2047L47.9313 30H43.9469L33.6734 1.5625ZM30.9977 1.5625H35.9391L36.8375 21.9141V30H30.9977V1.5625ZM55.9391 1.5625H60.9V30H55.0406V21.9141L55.9391 1.5625ZM84.0414 22.5586C84.0414 22.0508 83.9633 21.5951 83.807 21.1914C83.6638 20.7747 83.3904 20.3971 82.9867 20.0586C82.5831 19.707 82.0167 19.362 81.2875 19.0234C80.5583 18.6849 79.6143 18.3333 78.4555 17.9688C77.1664 17.5521 75.9425 17.0833 74.7836 16.5625C73.6378 16.0417 72.6221 15.4362 71.7367 14.7461C70.8643 14.043 70.1742 13.2292 69.6664 12.3047C69.1716 11.3802 68.9242 10.306 68.9242 9.08203C68.9242 7.89714 69.1846 6.82292 69.7055 5.85938C70.2263 4.88281 70.9555 4.04948 71.893 3.35938C72.8305 2.65625 73.9372 2.11589 75.2133 1.73828C76.5023 1.36068 77.9151 1.17188 79.4516 1.17188C81.5479 1.17188 83.3773 1.54948 84.9398 2.30469C86.5023 3.0599 87.7133 4.09505 88.5727 5.41016C89.4451 6.72526 89.8813 8.22917 89.8813 9.92188H84.0609C84.0609 9.08854 83.8852 8.35938 83.5336 7.73438C83.1951 7.09635 82.6742 6.59505 81.9711 6.23047C81.281 5.86589 80.4086 5.68359 79.3539 5.68359C78.3383 5.68359 77.4919 5.83984 76.8148 6.15234C76.1378 6.45182 75.63 6.86198 75.2914 7.38281C74.9529 7.89062 74.7836 8.46354 74.7836 9.10156C74.7836 9.58333 74.9008 10.0195 75.1352 10.4102C75.3826 10.8008 75.7471 11.1654 76.2289 11.5039C76.7107 11.8424 77.3031 12.1615 78.0063 12.4609C78.7094 12.7604 79.5232 13.0534 80.4477 13.3398C81.9971 13.8086 83.3578 14.3359 84.5297 14.9219C85.7146 15.5078 86.7042 16.1654 87.4984 16.8945C88.2927 17.6237 88.8917 18.4505 89.2953 19.375C89.699 20.2995 89.9008 21.3477 89.9008 22.5195C89.9008 23.7565 89.6599 24.8633 89.1781 25.8398C88.6964 26.8164 87.9997 27.6432 87.0883 28.3203C86.1768 28.9974 85.0896 29.5117 83.8266 29.8633C82.5635 30.2148 81.1508 30.3906 79.5883 30.3906C78.182 30.3906 76.7953 30.2083 75.4281 29.8438C74.0609 29.4661 72.8175 28.8997 71.6977 28.1445C70.5909 27.3893 69.7055 26.4258 69.0414 25.2539C68.3773 24.082 68.0453 22.6953 68.0453 21.0938H73.9242C73.9242 21.9792 74.0609 22.7279 74.3344 23.3398C74.6078 23.9518 74.9919 24.4466 75.4867 24.8242C75.9945 25.2018 76.5935 25.4753 77.2836 25.6445C77.9867 25.8138 78.755 25.8984 79.5883 25.8984C80.6039 25.8984 81.4372 25.7552 82.0883 25.4688C82.7523 25.1823 83.2406 24.7852 83.5531 24.2773C83.8787 23.7695 84.0414 23.1966 84.0414 22.5586ZM7.79004 35.373L4.81641 44H3.01855L6.76465 34.0469H7.91309L7.79004 35.373ZM10.2783 44L7.29785 35.373L7.16797 34.0469H8.32324L12.083 44H10.2783ZM10.1348 40.3086V41.6689H4.7207V40.3086H10.1348ZM18.6592 34.0469H20.3682V40.6982C20.3682 41.4548 20.2041 42.0882 19.876 42.5986C19.5479 43.109 19.1012 43.4941 18.5361 43.7539C17.9756 44.0091 17.349 44.1367 16.6562 44.1367C15.9408 44.1367 15.3027 44.0091 14.7422 43.7539C14.1816 43.4941 13.7396 43.109 13.416 42.5986C13.097 42.0882 12.9375 41.4548 12.9375 40.6982V34.0469H14.6465V40.6982C14.6465 41.1768 14.7285 41.571 14.8926 41.8809C15.0566 42.1862 15.2891 42.4118 15.5898 42.5576C15.8906 42.7035 16.2461 42.7764 16.6562 42.7764C17.0664 42.7764 17.4196 42.7035 17.7158 42.5576C18.0166 42.4118 18.249 42.1862 18.4131 41.8809C18.5771 41.571 18.6592 41.1768 18.6592 40.6982V34.0469ZM26.3291 34.0469V44H24.627V34.0469H26.3291ZM29.4531 34.0469V35.4141H21.5303V34.0469H29.4531ZM38.5107 38.75V39.2969C38.5107 40.0488 38.4128 40.7233 38.2168 41.3203C38.0208 41.9173 37.7406 42.4255 37.376 42.8447C37.016 43.264 36.583 43.5853 36.0771 43.8086C35.5713 44.0273 35.0107 44.1367 34.3955 44.1367C33.7848 44.1367 33.2266 44.0273 32.7207 43.8086C32.2194 43.5853 31.7842 43.264 31.415 42.8447C31.0459 42.4255 30.7588 41.9173 30.5537 41.3203C30.3532 40.7233 30.2529 40.0488 30.2529 39.2969V38.75C30.2529 37.998 30.3532 37.3258 30.5537 36.7334C30.7542 36.1364 31.0368 35.6283 31.4014 35.209C31.7705 34.7852 32.2057 34.4639 32.707 34.2451C33.2129 34.0218 33.7712 33.9102 34.3818 33.9102C34.9971 33.9102 35.5576 34.0218 36.0635 34.2451C36.5693 34.4639 37.0046 34.7852 37.3691 35.209C37.7337 35.6283 38.014 36.1364 38.21 36.7334C38.4105 37.3258 38.5107 37.998 38.5107 38.75ZM36.7949 39.2969V38.7363C36.7949 38.1803 36.7402 37.6904 36.6309 37.2666C36.526 36.8382 36.3688 36.4805 36.1592 36.1934C35.9541 35.9017 35.7012 35.6829 35.4004 35.5371C35.0996 35.3867 34.7601 35.3115 34.3818 35.3115C34.0036 35.3115 33.6663 35.3867 33.3701 35.5371C33.0739 35.6829 32.821 35.9017 32.6113 36.1934C32.4062 36.4805 32.249 36.8382 32.1396 37.2666C32.0303 37.6904 31.9756 38.1803 31.9756 38.7363V39.2969C31.9756 39.8529 32.0303 40.3451 32.1396 40.7734C32.249 41.2018 32.4085 41.5641 32.6182 41.8604C32.8324 42.152 33.0876 42.373 33.3838 42.5234C33.68 42.6693 34.0173 42.7422 34.3955 42.7422C34.7783 42.7422 35.1178 42.6693 35.4141 42.5234C35.7103 42.373 35.9609 42.152 36.166 41.8604C36.3711 41.5641 36.526 41.2018 36.6309 40.7734C36.7402 40.3451 36.7949 39.8529 36.7949 39.2969ZM40.9238 34.0469H42.4551L45.333 41.7236L48.2041 34.0469H49.7354L45.9346 44H44.7178L40.9238 34.0469ZM40.2266 34.0469H41.6826L41.9355 40.6914V44H40.2266V34.0469ZM48.9766 34.0469H50.4395V44H48.7236V40.6914L48.9766 34.0469ZM56.4756 35.373L53.502 44H51.7041L55.4502 34.0469H56.5986L56.4756 35.373ZM58.9639 44L55.9834 35.373L55.8535 34.0469H57.0088L60.7686 44H58.9639ZM58.8203 40.3086V41.6689H53.4062V40.3086H58.8203ZM65.1162 34.0469V44H63.4141V34.0469H65.1162ZM68.2402 34.0469V35.4141H60.3174V34.0469H68.2402ZM71.3848 34.0469V44H69.6689V34.0469H71.3848ZM81.4541 38.75V39.2969C81.4541 40.0488 81.3561 40.7233 81.1602 41.3203C80.9642 41.9173 80.6839 42.4255 80.3193 42.8447C79.9593 43.264 79.5264 43.5853 79.0205 43.8086C78.5146 44.0273 77.9541 44.1367 77.3389 44.1367C76.7282 44.1367 76.1699 44.0273 75.6641 43.8086C75.1628 43.5853 74.7275 43.264 74.3584 42.8447C73.9893 42.4255 73.7021 41.9173 73.4971 41.3203C73.2965 40.7233 73.1963 40.0488 73.1963 39.2969V38.75C73.1963 37.998 73.2965 37.3258 73.4971 36.7334C73.6976 36.1364 73.9801 35.6283 74.3447 35.209C74.7139 34.7852 75.1491 34.4639 75.6504 34.2451C76.1562 34.0218 76.7145 33.9102 77.3252 33.9102C77.9404 33.9102 78.501 34.0218 79.0068 34.2451C79.5127 34.4639 79.9479 34.7852 80.3125 35.209C80.6771 35.6283 80.9574 36.1364 81.1533 36.7334C81.3538 37.3258 81.4541 37.998 81.4541 38.75ZM79.7383 39.2969V38.7363C79.7383 38.1803 79.6836 37.6904 79.5742 37.2666C79.4694 36.8382 79.3122 36.4805 79.1025 36.1934C78.8975 35.9017 78.6445 35.6829 78.3438 35.5371C78.043 35.3867 77.7035 35.3115 77.3252 35.3115C76.9469 35.3115 76.6097 35.3867 76.3135 35.5371C76.0173 35.6829 75.7643 35.9017 75.5547 36.1934C75.3496 36.4805 75.1924 36.8382 75.083 37.2666C74.9736 37.6904 74.9189 38.1803 74.9189 38.7363V39.2969C74.9189 39.8529 74.9736 40.3451 75.083 40.7734C75.1924 41.2018 75.3519 41.5641 75.5615 41.8604C75.7757 42.152 76.0309 42.373 76.3271 42.5234C76.6234 42.6693 76.9606 42.7422 77.3389 42.7422C77.7217 42.7422 78.0612 42.6693 78.3574 42.5234C78.6536 42.373 78.9043 42.152 79.1094 41.8604C79.3145 41.5641 79.4694 41.2018 79.5742 40.7734C79.6836 40.3451 79.7383 39.8529 79.7383 39.2969ZM91.0654 34.0469V44H89.3496L84.8857 36.8701V44H83.1699V34.0469H84.8857L89.3633 41.1904V34.0469H91.0654Z" fill="#0070E0"/>
        </g>
    </g>
    <defs>
        <clipPath id="clip0_2209_8">
            <rect width="92" height="46" fill="white"/>
        </clipPath>
        <clipPath id="clip1_2209_8">
            <rect width="92" height="46" fill="white"/>
        </clipPath>
    </defs>
</svg>
