<svg width="224" height="166" viewBox="0 0 224 166" fill="none" xmlns="http://www.w3.org/2000/svg">
<g clip-path="url(#clip0_2520_110)">
<path fill-rule="evenodd" clip-rule="evenodd" d="M204 134H208C208 114.118 191.882 98 172 98C152.118 98 136 114.118 136 134H140C140 116.327 154.327 102 172 102C189.673 102 204 116.327 204 134ZM62 16H128C132.418 16 136 19.5817 136 24V118H102.258C104.653 122.82 106 128.253 106 134H136H140C140 151.673 154.327 166 172 166C189.673 166 204 151.673 204 134H216C220.418 134 224 130.418 224 126C224 121.582 220.418 118 216 118H214V80V79.9908V79.9815V79.9723V79.9631V79.9539V79.9448V79.9356V79.9265V79.9173V79.9082V79.8991V79.89V79.8809V79.8718V79.8627V79.8537V79.8446V79.8356V79.8266V79.8176V79.8085V79.7996V79.7906V79.7816V79.7726V79.7637V79.7548V79.7458V79.7369V79.728V79.7191V79.7102V79.7014V79.6925V79.6836V79.6748V79.666V79.6571V79.6483V79.6395V79.6307V79.622V79.6132V79.6044V79.5957V79.5869V79.5782V79.5695V79.5608V79.5521V79.5434V79.5347V79.526V79.5174V79.5087V79.5001V79.4914V79.4828V79.4742V79.4656V79.457V79.4484V79.4398V79.4312V79.4227V79.4141V79.4056V79.397V79.3885V79.38V79.3715V79.363V79.3545V79.346V79.3375V79.3291V79.3206V79.3122V79.3037V79.2953V79.2869V79.2785V79.2701V79.2617V79.2533V79.2449V79.2365V79.2281V79.2198V79.2114V79.2031V79.1948V79.1864V79.1781V79.1698V79.1615V79.1532V79.1449V79.1366V79.1283V79.1201V79.1118V79.1036V79.0953V79.0871V79.0788V79.0706V79.0624V79.0542V79.046V79.0378V79.0296V79.0214V79.0132V79.0051V78.9969V78.9887V78.9806V78.9725V78.9643V78.9562V78.9481V78.9399V78.9318V78.9237V78.9156V78.9075V78.8994V78.8914V78.8833V78.8752V78.8671V78.8591V78.851V78.843V78.8349V78.8269V78.8189V78.8109V78.8028V78.7948V78.7868V78.7788V78.7708V78.7628V78.7548V78.7469V78.7389V78.7309V78.7229V78.715V78.707V78.6991V78.6911V78.6832V78.6752V78.6673V78.6594V78.6515V78.6435V78.6356V78.6277V78.6198V78.6119V78.604V78.5961V78.5882V78.5804V78.5725V78.5646V78.5567V78.5489V78.541V78.5331V78.5253V78.5174V78.5096V78.5017V78.4939V78.4861V78.4782V78.4704V78.4626V78.4547V78.4469V78.4391V78.4313V78.4235V78.4157V78.4079V78.4001V78.3923V78.3845V78.3767V78.3689V78.3611V78.3533V78.3456V78.3378V78.33V78.3222V78.3145V78.3067V78.2989V78.2912V78.2834V78.2757V78.2679V78.2601V78.2524V78.2446V78.2369V78.2291V78.2214V78.2137V78.2059V78.1982V78.1905V78.1827V78.175V78.1673V78.1595V78.1518V78.1441V78.1364V78.1286V78.1209V78.1132V78.1055V78.0978V78.0901V78.0823V78.0746V78.0669V78.0592V78.0515V78.0438V78.0361V78.0284V78.0207V78.013V78.0052V78V77.9976V77.9898V77.9821V77.9744V77.9667V77.959V77.9513V77.9436V77.9359V77.9282V77.9205V77.9128V77.9051V77.8974V77.8897V77.882V77.8743V77.8666V77.8589V77.8512V77.8435V77.8358V77.8281V77.8204V77.8127V77.805V77.7973V77.7896V77.7819V77.7742V77.7665V77.7588V77.7511V77.7434V77.7357V77.728V77.7202V77.7125V77.7048V77.6971V77.6894V77.6817V77.674V77.6662V77.6585V77.6508V77.6431V77.6353V77.6276V77.6199V77.6121V77.6044V77.5967V77.5889V77.5812V77.5735V77.5657V77.558V77.5502V77.5425V77.5347V77.527V77.5192V77.5115V77.5037V77.4959V77.4882V77.4804V77.4726V77.4649V77.4571V77.4493V77.4415V77.4338V77.426V77.4182V77.4104V77.4026V77.3948V77.387V77.3792V77.3714V77.3636V77.3558V77.3479V77.3401V77.3323V77.3245V77.3167V77.3088V77.301V77.2931V77.2853V77.2774V77.2696V77.2617V77.2539V77.246V77.2381V77.2303V77.2224V77.2145V77.2066V77.1987V77.1908V77.183V77.175V77.1671V77.1592V77.1513V77.1434V77.1355V77.1276V77.1196V77.1117V77.1037V77.0958V77.0878V77.0799V77.0719V77.064V77.056V77.048V77.04V77.032V77.024V77.0161V77.0081V77V76.992V76.984V76.976V76.968V76.9599V76.9519V76.9438V76.9358V76.9277V76.9197V76.9116V76.9035V76.8954V76.8873V76.8793V76.8712V76.863V76.8549V76.8468V76.8387V76.8306V76.8224V76.8143V76.8061V76.798V76.7898V76.7816V76.7735V76.7653V76.7571V76.7489V76.7407V76.7325V76.7243V76.716V76.7078V76.6996V76.6913V76.6831V76.6748V76.6665V76.6582V76.65V76.6417V76.6334V76.6251V76.6168V76.6084V76.6001V76.5918V76.5834V76.5751V76.5667V76.5584V76.55V76.5416V76.5332V76.5248V76.5164V76.508V76.4996V76.4911V76.4827V76.4742V76.4658V76.4573V76.4489V76.4404V76.4319V76.4234V76.4149V76.4064V76.3978V76.3893V76.3808V76.3722V76.3636V76.3551V76.3465V76.3379V76.3293V76.3207V76.3121V76.3035V76.2948V76.2862V76.2775V76.2688V76.2602V76.2515V76.2428V76.2341V76.2254V76.2167V76.2079V76.1992V76.1904V76.1817V76.1729V76.1641V76.1553V76.1465V76.1377V76.1289V76.1201V76.1112V76.1024V76.0935V76.0846V76.0758V76.0669V76.058V76.049V76.0401V76.0312V76.0222V76.0133V76.0043V75.9953V75.9863V75.9773V75.9683V75.9593V75.9502V75.9412V75.9321V75.9231V75.914V75.9049V75.8958V75.8867V75.8775V75.8684V75.8593V75.8501V75.8409V75.8317V75.8225V75.8133V75.8041V75.7949C214 74.1897 213.513 72.9932 213.37 72.6467C213.16 72.1361 212.937 71.7355 212.799 71.5011C212.519 71.0237 212.224 70.6137 212.023 70.3437C211.598 69.7725 211.077 69.146 210.557 68.5416C209.489 67.3013 208.029 65.7011 206.357 63.9145C202.993 60.3195 198.533 55.7145 194.072 51.1894C189.607 46.6609 185.097 42.1675 181.623 38.7911C179.894 37.1102 178.38 35.6658 177.243 34.6221C176.687 34.1118 176.144 33.6264 175.678 33.2397C175.462 33.0602 175.136 32.7965 174.77 32.5407C174.599 32.4219 174.259 32.1906 173.817 31.9563C173.595 31.8389 173.215 31.6494 172.723 31.4736C172.323 31.3305 171.323 31 170 31H160.625H154.672H152.732H152.191H152.049H152.012H152.009H152.007H152.005H152.003H152.001H152C152 31 152 31 152 39V24C152 10.7452 141.255 0 128 0H62C48.7452 0 38 10.7452 38 24V29H54V24C54 19.5817 57.5817 16 62 16ZM152 78V39C152 47 152 47 152 47H152.001H152.003H152.012H152.049H152.191H152.732H154.672H160.625H167.061C167.964 47.8446 169.119 48.9503 170.471 50.2638C173.841 53.54 178.268 57.9497 182.678 62.4227C187.092 66.8993 191.444 71.3944 194.674 74.8463C195.82 76.0714 196.796 77.1338 197.57 78H152ZM38 117.491V97H54V101.742C47.1365 105.153 41.5159 110.69 38 117.491ZM156 134C156 125.163 163.163 118 172 118C180.837 118 188 125.163 188 134C188 142.837 180.837 150 172 150C163.163 150 156 142.837 156 134ZM70 150C78.8366 150 86 142.837 86 134C86 125.163 78.8366 118 70 118C61.1634 118 54 125.163 54 134C54 142.837 61.1634 150 70 150ZM70 166C87.6731 166 102 151.673 102 134C102 116.327 87.6731 102 70 102C52.3269 102 38 116.327 38 134C38 151.673 52.3269 166 70 166Z" fill="#0070E0"/>
<g clip-path="url(#clip1_2520_110)">
<path d="M15.7078 41.5625V70H9.86797V41.5625H15.7078ZM24.4578 41.5625V46.1523H1.25469V41.5625H24.4578ZM33.6734 41.5625H38.6344L45.9391 62.4414L53.2438 41.5625H58.2047L47.9313 70H43.9469L33.6734 41.5625ZM30.9977 41.5625H35.9391L36.8375 61.9141V70H30.9977V41.5625ZM55.9391 41.5625H60.9V70H55.0406V61.9141L55.9391 41.5625ZM84.0414 62.5586C84.0414 62.0508 83.9633 61.5951 83.807 61.1914C83.6638 60.7747 83.3904 60.3971 82.9867 60.0586C82.5831 59.707 82.0167 59.362 81.2875 59.0234C80.5583 58.6849 79.6143 58.3333 78.4555 57.9688C77.1664 57.5521 75.9425 57.0833 74.7836 56.5625C73.6378 56.0417 72.6221 55.4362 71.7367 54.7461C70.8643 54.043 70.1742 53.2292 69.6664 52.3047C69.1716 51.3802 68.9242 50.306 68.9242 49.082C68.9242 47.8971 69.1846 46.8229 69.7055 45.8594C70.2263 44.8828 70.9555 44.0495 71.893 43.3594C72.8305 42.6562 73.9372 42.1159 75.2133 41.7383C76.5023 41.3607 77.9151 41.1719 79.4516 41.1719C81.5479 41.1719 83.3773 41.5495 84.9398 42.3047C86.5023 43.0599 87.7133 44.0951 88.5727 45.4102C89.4451 46.7253 89.8813 48.2292 89.8813 49.9219H84.0609C84.0609 49.0885 83.8852 48.3594 83.5336 47.7344C83.1951 47.0964 82.6742 46.5951 81.9711 46.2305C81.281 45.8659 80.4086 45.6836 79.3539 45.6836C78.3383 45.6836 77.4919 45.8398 76.8148 46.1523C76.1378 46.4518 75.63 46.862 75.2914 47.3828C74.9529 47.8906 74.7836 48.4635 74.7836 49.1016C74.7836 49.5833 74.9008 50.0195 75.1352 50.4102C75.3826 50.8008 75.7471 51.1654 76.2289 51.5039C76.7107 51.8424 77.3031 52.1615 78.0063 52.4609C78.7094 52.7604 79.5232 53.0534 80.4477 53.3398C81.9971 53.8086 83.3578 54.3359 84.5297 54.9219C85.7146 55.5078 86.7042 56.1654 87.4984 56.8945C88.2927 57.6237 88.8917 58.4505 89.2953 59.375C89.699 60.2995 89.9008 61.3477 89.9008 62.5195C89.9008 63.7565 89.6599 64.8633 89.1781 65.8398C88.6964 66.8164 87.9997 67.6432 87.0883 68.3203C86.1768 68.9974 85.0896 69.5117 83.8266 69.8633C82.5635 70.2148 81.1508 70.3906 79.5883 70.3906C78.182 70.3906 76.7953 70.2083 75.4281 69.8438C74.0609 69.4661 72.8175 68.8997 71.6977 68.1445C70.5909 67.3893 69.7055 66.4258 69.0414 65.2539C68.3773 64.082 68.0453 62.6953 68.0453 61.0938H73.9242C73.9242 61.9792 74.0609 62.7279 74.3344 63.3398C74.6078 63.9518 74.9919 64.4466 75.4867 64.8242C75.9945 65.2018 76.5935 65.4753 77.2836 65.6445C77.9867 65.8138 78.755 65.8984 79.5883 65.8984C80.6039 65.8984 81.4372 65.7552 82.0883 65.4688C82.7523 65.1823 83.2406 64.7852 83.5531 64.2773C83.8787 63.7695 84.0414 63.1966 84.0414 62.5586ZM7.79004 75.373L4.81641 84H3.01855L6.76465 74.0469H7.91309L7.79004 75.373ZM10.2783 84L7.29785 75.373L7.16797 74.0469H8.32324L12.083 84H10.2783ZM10.1348 80.3086V81.6689H4.7207V80.3086H10.1348ZM18.6592 74.0469H20.3682V80.6982C20.3682 81.4548 20.2041 82.0882 19.876 82.5986C19.5479 83.109 19.1012 83.4941 18.5361 83.7539C17.9756 84.0091 17.349 84.1367 16.6562 84.1367C15.9408 84.1367 15.3027 84.0091 14.7422 83.7539C14.1816 83.4941 13.7396 83.109 13.416 82.5986C13.097 82.0882 12.9375 81.4548 12.9375 80.6982V74.0469H14.6465V80.6982C14.6465 81.1768 14.7285 81.571 14.8926 81.8809C15.0566 82.1862 15.2891 82.4118 15.5898 82.5576C15.8906 82.7035 16.2461 82.7764 16.6562 82.7764C17.0664 82.7764 17.4196 82.7035 17.7158 82.5576C18.0166 82.4118 18.249 82.1862 18.4131 81.8809C18.5771 81.571 18.6592 81.1768 18.6592 80.6982V74.0469ZM26.3291 74.0469V84H24.627V74.0469H26.3291ZM29.4531 74.0469V75.4141H21.5303V74.0469H29.4531ZM38.5107 78.75V79.2969C38.5107 80.0488 38.4128 80.7233 38.2168 81.3203C38.0208 81.9173 37.7406 82.4255 37.376 82.8447C37.016 83.264 36.583 83.5853 36.0771 83.8086C35.5713 84.0273 35.0107 84.1367 34.3955 84.1367C33.7848 84.1367 33.2266 84.0273 32.7207 83.8086C32.2194 83.5853 31.7842 83.264 31.415 82.8447C31.0459 82.4255 30.7588 81.9173 30.5537 81.3203C30.3532 80.7233 30.2529 80.0488 30.2529 79.2969V78.75C30.2529 77.998 30.3532 77.3258 30.5537 76.7334C30.7542 76.1364 31.0368 75.6283 31.4014 75.209C31.7705 74.7852 32.2057 74.4639 32.707 74.2451C33.2129 74.0218 33.7712 73.9102 34.3818 73.9102C34.9971 73.9102 35.5576 74.0218 36.0635 74.2451C36.5693 74.4639 37.0046 74.7852 37.3691 75.209C37.7337 75.6283 38.014 76.1364 38.21 76.7334C38.4105 77.3258 38.5107 77.998 38.5107 78.75ZM36.7949 79.2969V78.7363C36.7949 78.1803 36.7402 77.6904 36.6309 77.2666C36.526 76.8382 36.3688 76.4805 36.1592 76.1934C35.9541 75.9017 35.7012 75.6829 35.4004 75.5371C35.0996 75.3867 34.7601 75.3115 34.3818 75.3115C34.0036 75.3115 33.6663 75.3867 33.3701 75.5371C33.0739 75.6829 32.821 75.9017 32.6113 76.1934C32.4062 76.4805 32.249 76.8382 32.1396 77.2666C32.0303 77.6904 31.9756 78.1803 31.9756 78.7363V79.2969C31.9756 79.8529 32.0303 80.3451 32.1396 80.7734C32.249 81.2018 32.4085 81.5641 32.6182 81.8604C32.8324 82.152 33.0876 82.373 33.3838 82.5234C33.68 82.6693 34.0173 82.7422 34.3955 82.7422C34.7783 82.7422 35.1178 82.6693 35.4141 82.5234C35.7103 82.373 35.9609 82.152 36.166 81.8604C36.3711 81.5641 36.526 81.2018 36.6309 80.7734C36.7402 80.3451 36.7949 79.8529 36.7949 79.2969ZM40.9238 74.0469H42.4551L45.333 81.7236L48.2041 74.0469H49.7354L45.9346 84H44.7178L40.9238 74.0469ZM40.2266 74.0469H41.6826L41.9355 80.6914V84H40.2266V74.0469ZM48.9766 74.0469H50.4395V84H48.7236V80.6914L48.9766 74.0469ZM56.4756 75.373L53.502 84H51.7041L55.4502 74.0469H56.5986L56.4756 75.373ZM58.9639 84L55.9834 75.373L55.8535 74.0469H57.0088L60.7686 84H58.9639ZM58.8203 80.3086V81.6689H53.4062V80.3086H58.8203ZM65.1162 74.0469V84H63.4141V74.0469H65.1162ZM68.2402 74.0469V75.4141H60.3174V74.0469H68.2402ZM71.3848 74.0469V84H69.6689V74.0469H71.3848ZM81.4541 78.75V79.2969C81.4541 80.0488 81.3561 80.7233 81.1602 81.3203C80.9642 81.9173 80.6839 82.4255 80.3193 82.8447C79.9593 83.264 79.5264 83.5853 79.0205 83.8086C78.5146 84.0273 77.9541 84.1367 77.3389 84.1367C76.7282 84.1367 76.1699 84.0273 75.6641 83.8086C75.1628 83.5853 74.7275 83.264 74.3584 82.8447C73.9893 82.4255 73.7021 81.9173 73.4971 81.3203C73.2965 80.7233 73.1963 80.0488 73.1963 79.2969V78.75C73.1963 77.998 73.2965 77.3258 73.4971 76.7334C73.6976 76.1364 73.9801 75.6283 74.3447 75.209C74.7139 74.7852 75.1491 74.4639 75.6504 74.2451C76.1562 74.0218 76.7145 73.9102 77.3252 73.9102C77.9404 73.9102 78.501 74.0218 79.0068 74.2451C79.5127 74.4639 79.9479 74.7852 80.3125 75.209C80.6771 75.6283 80.9574 76.1364 81.1533 76.7334C81.3538 77.3258 81.4541 77.998 81.4541 78.75ZM79.7383 79.2969V78.7363C79.7383 78.1803 79.6836 77.6904 79.5742 77.2666C79.4694 76.8382 79.3122 76.4805 79.1025 76.1934C78.8975 75.9017 78.6445 75.6829 78.3438 75.5371C78.043 75.3867 77.7035 75.3115 77.3252 75.3115C76.9469 75.3115 76.6097 75.3867 76.3135 75.5371C76.0173 75.6829 75.7643 75.9017 75.5547 76.1934C75.3496 76.4805 75.1924 76.8382 75.083 77.2666C74.9736 77.6904 74.9189 78.1803 74.9189 78.7363V79.2969C74.9189 79.8529 74.9736 80.3451 75.083 80.7734C75.1924 81.2018 75.3519 81.5641 75.5615 81.8604C75.7757 82.152 76.0309 82.373 76.3271 82.5234C76.6234 82.6693 76.9606 82.7422 77.3389 82.7422C77.7217 82.7422 78.0612 82.6693 78.3574 82.5234C78.6536 82.373 78.9043 82.152 79.1094 81.8604C79.3145 81.5641 79.4694 81.2018 79.5742 80.7734C79.6836 80.3451 79.7383 79.8529 79.7383 79.2969ZM91.0654 74.0469V84H89.3496L84.8857 76.8701V84H83.1699V74.0469H84.8857L89.3633 81.1904V74.0469H91.0654Z" fill="#0070E0"/>
</g>
</g>
<defs>
<clipPath id="clip0_2520_110">
<rect width="224" height="166" fill="white"/>
</clipPath>
<clipPath id="clip1_2520_110">
<rect width="92" height="46" fill="white" transform="translate(0 40)"/>
</clipPath>
</defs>
</svg>
